<svg xmlns="http://www.w3.org/2000/svg" width="1180" height="720" viewBox="0 0 1180 720">
<rect width="100%" height="100%" fill="#ffffff"/>
<text x="70" y="52" font-family="Arial" font-size="32" font-weight="bold" fill="#0f172a">Modelo TNEP: expansión de corredores</text>
<text x="70" y="82" font-family="Arial" font-size="18" fill="#475569">La decisión es construir circuitos para transportar energía</text>
<line x1="150" y1="220" x2="410" y2="130" stroke="#64748b" stroke-width="4"/><text x="280.0" y="167.0" text-anchor="middle" font-family="Arial" font-size="14" fill="#475569">C12</text><line x1="150" y1="220" x2="300" y2="460" stroke="#64748b" stroke-width="4"/><text x="225.0" y="332.0" text-anchor="middle" font-family="Arial" font-size="14" fill="#475569">C14</text><line x1="150" y1="220" x2="610" y2="460" stroke="#64748b" stroke-width="4"/><text x="380.0" y="332.0" text-anchor="middle" font-family="Arial" font-size="14" fill="#475569">C15</text><line x1="410" y1="130" x2="700" y2="190" stroke="#64748b" stroke-width="4"/><text x="555.0" y="152.0" text-anchor="middle" font-family="Arial" font-size="14" fill="#475569">C23</text><line x1="410" y1="130" x2="300" y2="460" stroke="#64748b" stroke-width="4"/><text x="355.0" y="287.0" text-anchor="middle" font-family="Arial" font-size="14" fill="#475569">C24</text><line x1="410" y1="130" x2="920" y2="330" stroke="#64748b" stroke-width="4"/><text x="665.0" y="222.0" text-anchor="middle" font-family="Arial" font-size="14" fill="#475569">C26</text><line x1="700" y1="190" x2="610" y2="460" stroke="#64748b" stroke-width="4"/><text x="655.0" y="317.0" text-anchor="middle" font-family="Arial" font-size="14" fill="#475569">C35</text><line x1="700" y1="190" x2="920" y2="330" stroke="#64748b" stroke-width="4"/><text x="810.0" y="252.0" text-anchor="middle" font-family="Arial" font-size="14" fill="#475569">C36</text><line x1="300" y1="460" x2="610" y2="460" stroke="#64748b" stroke-width="4"/><text x="455.0" y="452.0" text-anchor="middle" font-family="Arial" font-size="14" fill="#475569">C45</text><line x1="300" y1="460" x2="920" y2="330" stroke="#64748b" stroke-width="4"/><text x="610.0" y="387.0" text-anchor="middle" font-family="Arial" font-size="14" fill="#475569">C46</text><line x1="610" y1="460" x2="920" y2="330" stroke="#64748b" stroke-width="4"/><text x="765.0" y="387.0" text-anchor="middle" font-family="Arial" font-size="14" fill="#475569">C56</text><circle cx="150" cy="220" r="42" fill="#dbeafe" stroke="#1e3a8a" stroke-width="3"/><text x="150" y="227" text-anchor="middle" font-family="Arial" font-size="24" font-weight="bold" fill="#0f172a">1</text><text x="150" y="285" text-anchor="middle" font-family="Arial" font-size="15" fill="#334155">Gen/Carga</text><circle cx="410" cy="130" r="42" fill="#dbeafe" stroke="#1e3a8a" stroke-width="3"/><text x="410" y="137" text-anchor="middle" font-family="Arial" font-size="24" font-weight="bold" fill="#0f172a">2</text><text x="410" y="195" text-anchor="middle" font-family="Arial" font-size="15" fill="#334155">Carga</text><circle cx="700" cy="190" r="42" fill="#dbeafe" stroke="#1e3a8a" stroke-width="3"/><text x="700" y="197" text-anchor="middle" font-family="Arial" font-size="24" font-weight="bold" fill="#0f172a">3</text><text x="700" y="255" text-anchor="middle" font-family="Arial" font-size="15" fill="#334155">Gen</text><circle cx="300" cy="460" r="42" fill="#dbeafe" stroke="#1e3a8a" stroke-width="3"/><text x="300" y="467" text-anchor="middle" font-family="Arial" font-size="24" font-weight="bold" fill="#0f172a">4</text><text x="300" y="525" text-anchor="middle" font-family="Arial" font-size="15" fill="#334155">Carga</text><circle cx="610" cy="460" r="42" fill="#dbeafe" stroke="#1e3a8a" stroke-width="3"/><text x="610" y="467" text-anchor="middle" font-family="Arial" font-size="24" font-weight="bold" fill="#0f172a">5</text><text x="610" y="525" text-anchor="middle" font-family="Arial" font-size="15" fill="#334155">Carga</text><circle cx="920" cy="330" r="42" fill="#dbeafe" stroke="#1e3a8a" stroke-width="3"/><text x="920" y="337" text-anchor="middle" font-family="Arial" font-size="24" font-weight="bold" fill="#0f172a">6</text><text x="920" y="395" text-anchor="middle" font-family="Arial" font-size="15" fill="#334155">Gen</text>
</svg>