<svg xmlns="http://www.w3.org/2000/svg" width="1180" height="635" viewBox="0 0 1180 635">
<rect width="100%" height="100%" fill="#ffffff"/>
<text x="70" y="52" font-family="Arial" font-size="32" font-weight="bold" fill="#0f172a">Despacho hidrotérmico</text>
<text x="70" y="82" font-family="Arial" font-size="18" fill="#475569">Uso coordinado de agua y generación térmica</text>
<rect x="70" y="112" width="1040" height="64" rx="14" fill="#E0F2FE" stroke="#334155" stroke-width="2"/><text x="100" y="138" font-family="Arial" font-size="20" font-weight="bold" fill="#0f172a">1. Afluencias</text><text x="100" y="163" font-family="Arial" font-size="16" fill="#334155">Entradas de agua al sistema</text><line x1="590" y1="176" x2="590" y2="198" stroke="#475569" stroke-width="3"/><polygon points="580,194 600,194 590,206" fill="#475569"/><rect x="70" y="204" width="1040" height="64" rx="14" fill="#DCFCE7" stroke="#334155" stroke-width="2"/><text x="100" y="230" font-family="Arial" font-size="20" font-weight="bold" fill="#0f172a">2. Embalses</text><text x="100" y="255" font-family="Arial" font-size="16" fill="#334155">Almacenamiento y límites</text><line x1="590" y1="268" x2="590" y2="290" stroke="#475569" stroke-width="3"/><polygon points="580,286 600,286 590,298" fill="#475569"/><rect x="70" y="296" width="1040" height="64" rx="14" fill="#FEF3C7" stroke="#334155" stroke-width="2"/><text x="100" y="322" font-family="Arial" font-size="20" font-weight="bold" fill="#0f172a">3. Turbinamiento</text><text x="100" y="347" font-family="Arial" font-size="16" fill="#334155">Agua convertida en energía</text><line x1="590" y1="360" x2="590" y2="382" stroke="#475569" stroke-width="3"/><polygon points="580,378 600,378 590,390" fill="#475569"/><rect x="70" y="388" width="1040" height="64" rx="14" fill="#FCE7F3" stroke="#334155" stroke-width="2"/><text x="100" y="414" font-family="Arial" font-size="20" font-weight="bold" fill="#0f172a">4. Térmica</text><text x="100" y="439" font-family="Arial" font-size="16" fill="#334155">Complemento con costo variable</text><line x1="590" y1="452" x2="590" y2="474" stroke="#475569" stroke-width="3"/><polygon points="580,470 600,470 590,482" fill="#475569"/><rect x="70" y="480" width="1040" height="64" rx="14" fill="#EDE9FE" stroke="#334155" stroke-width="2"/><text x="100" y="506" font-family="Arial" font-size="20" font-weight="bold" fill="#0f172a">5. Coordinación</text><text x="100" y="531" font-family="Arial" font-size="16" fill="#334155">Decisión temporal de usar o guardar agua</text>
</svg>