<svg xmlns="http://www.w3.org/2000/svg" width="1320" height="646" viewBox="0 0 1320 646"><rect width="100%" height="100%" fill="#ffffff"/><text x="60" y="52" font-family="Arial" font-size="34" font-weight="bold" fill="#0f172a">Qué caso usar según el tema</text><text x="60" y="84" font-family="Arial" font-size="18" fill="#475569">Mapa de selección para el estudiante</text><rect x="60" y="120" width="1200" height="62" rx="12" fill="#0f172a"/><text x="78" y="158" font-family="Arial" font-size="16" font-weight="bold" fill="#ffffff">Tema</text><text x="478" y="158" font-family="Arial" font-size="16" font-weight="bold" fill="#ffffff">Caso recomendado</text><text x="878" y="158" font-family="Arial" font-size="16" font-weight="bold" fill="#ffffff">Resultado esperado</text><rect x="60" y="182" width="1200" height="62" fill="#f8fafc" stroke="#cbd5e1"/><text x="78" y="207" font-family="Arial" font-size="14.5" fill="#0f172a">Fundamentos / ED</text><text x="478" y="207" font-family="Arial" font-size="14.5" fill="#0f172a">operacion_3_generadores</text><text x="878" y="207" font-family="Arial" font-size="14.5" fill="#0f172a">despacho, costo, sensibilidad</text><rect x="60" y="244" width="1200" height="62" fill="#ffffff" stroke="#cbd5e1"/><text x="78" y="269" font-family="Arial" font-size="14.5" fill="#0f172a">ED escalable</text><text x="478" y="269" font-family="Arial" font-size="14.5" fill="#0f172a">operacion_101_generadores</text><text x="878" y="269" font-family="Arial" font-size="14.5" fill="#0f172a">formulación indexada</text><rect x="60" y="306" width="1200" height="62" fill="#f8fafc" stroke="#cbd5e1"/><text x="78" y="331" font-family="Arial" font-size="14.5" fill="#0f172a">Hidrotérmico</text><text x="478" y="331" font-family="Arial" font-size="14.5" fill="#0f172a">hidrotermico_didactico</text><text x="878" y="331" font-family="Arial" font-size="14.5" fill="#0f172a">volúmenes, agua, térmica</text><rect x="60" y="368" width="1200" height="62" fill="#ffffff" stroke="#cbd5e1"/><text x="78" y="393" font-family="Arial" font-size="14.5" fill="#0f172a">OPF-DC</text><text x="478" y="393" font-family="Arial" font-size="14.5" fill="#0f172a">opf_dc_didactico</text><text x="878" y="393" font-family="Arial" font-size="14.5" fill="#0f172a">ángulos, flujos, congestión</text><rect x="60" y="430" width="1200" height="62" fill="#f8fafc" stroke="#cbd5e1"/><text x="78" y="455" font-family="Arial" font-size="14.5" fill="#0f172a">OPF-AC</text><text x="478" y="455" font-family="Arial" font-size="14.5" fill="#0f172a">ieee_14 / ieee_30</text><text x="878" y="455" font-family="Arial" font-size="14.5" fill="#0f172a">tensión, Q, pérdidas</text><rect x="60" y="492" width="1200" height="62" fill="#ffffff" stroke="#cbd5e1"/><text x="78" y="517" font-family="Arial" font-size="14.5" fill="#0f172a">TNEP</text><text x="478" y="517" font-family="Arial" font-size="14.5" fill="#0f172a">garver / ieee_24</text><text x="878" y="517" font-family="Arial" font-size="14.5" fill="#0f172a">inversión, flujos, ENS</text><rect x="60" y="554" width="1200" height="62" fill="#f8fafc" stroke="#cbd5e1"/><text x="78" y="579" font-family="Arial" font-size="14.5" fill="#0f172a">GEP</text><text x="478" y="579" font-family="Arial" font-size="14.5" fill="#0f172a">garver_6_barras</text><text x="878" y="579" font-family="Arial" font-size="14.5" fill="#0f172a">capacidad, bloques, reserva</text></svg>
