<svg xmlns="http://www.w3.org/2000/svg" width="1280" height="720" viewBox="0 0 1280 720">
<rect width="100%" height="100%" fill="#ffffff"/>
<text x="60" y="55" font-family="Arial" font-size="34" font-weight="bold" fill="#0f172a">Región factible</text>
<text x="60" y="88" font-family="Arial" font-size="18" fill="#475569">Restricciones, vértices, holguras y solución óptima</text>

<line x1="170" y1="610" x2="900" y2="610" stroke="#0f172a" stroke-width="3"/>
<line x1="170" y1="610" x2="170" y2="150" stroke="#0f172a" stroke-width="3"/>
<text x="895" y="650" font-family="Arial" font-size="20">x₁</text>
<text x="125" y="165" font-family="Arial" font-size="20">x₂</text>
<polygon points="170,610 170,360 350,245 650,275 820,470 875,610" fill="#dbeafe" stroke="#1e40af" stroke-width="4" opacity="0.85"/>
<line x1="170" y1="360" x2="875" y2="610" stroke="#475569" stroke-width="2.5" stroke-dasharray="8,8"/>
<line x1="350" y1="245" x2="820" y2="470" stroke="#475569" stroke-width="2.5" stroke-dasharray="8,8"/>
<circle cx="820" cy="470" r="12" fill="#dc2626"/>
<text x="845" y="475" font-family="Arial" font-size="19" fill="#991b1b" font-weight="bold">Óptimo</text>
<rect x="930" y="190" width="280" height="210" rx="18" fill="#f8fafc" stroke="#334155" stroke-width="2"/>
<text x="960" y="235" font-family="Arial" font-size="20" font-weight="bold">Conceptos</text>
<text x="960" y="275" font-family="Arial" font-size="16">• región factible</text>
<text x="960" y="305" font-family="Arial" font-size="16">• restricción activa</text>
<text x="960" y="335" font-family="Arial" font-size="16">• vértice</text>
<text x="960" y="365" font-family="Arial" font-size="16">• holgura</text>

</svg>
