<svg xmlns="http://www.w3.org/2000/svg" width="1100" height="700" viewBox="0 0 1100 700">

<rect width="1100" height="700" fill="#ffffff"/>
<text x="50" y="55" font-family="Arial" font-size="30" font-weight="bold">Red base y corredores candidatos</text>
<circle cx="180" cy="200" r="40" fill="#eff6ff" stroke="#1e40af" stroke-width="3"/><text x="162" y="208" font-family="Arial" font-size="18">B1</text>
<circle cx="470" cy="160" r="40" fill="#f8fafc" stroke="#334155" stroke-width="3"/><text x="452" y="168" font-family="Arial" font-size="18">B2</text>
<circle cx="760" cy="260" r="40" fill="#f8fafc" stroke="#334155" stroke-width="3"/><text x="742" y="268" font-family="Arial" font-size="18">B3</text>
<circle cx="520" cy="480" r="40" fill="#fff7ed" stroke="#9a3412" stroke-width="3"/><text x="502" y="488" font-family="Arial" font-size="18">B4</text>
<line x1="220" y1="195" x2="430" y2="165" stroke="#334155" stroke-width="5"/><text x="295" y="150" font-family="Arial" font-size="15">existente</text>
<line x1="510" y1="175" x2="720" y2="245" stroke="#334155" stroke-width="5"/><line x1="730" y1="295" x2="550" y2="455" stroke="#334155" stroke-width="5"/>
<line x1="220" y1="220" x2="720" y2="270" stroke="#991b1b" stroke-width="4" stroke-dasharray="12,8"/><text x="430" y="270" font-family="Arial" font-size="15" fill="#991b1b">candidato</text>
<line x1="475" y1="200" x2="525" y2="440" stroke="#991b1b" stroke-width="4" stroke-dasharray="12,8"/><line x1="205" y1="235" x2="495" y2="450" stroke="#991b1b" stroke-width="4" stroke-dasharray="12,8"/>
<text x="110" y="295" font-family="Arial" font-size="15">Generación</text><text x="780" y="340" font-family="Arial" font-size="15">Carga</text><text x="520" y="555" font-family="Arial" font-size="15">Carga + generación</text>

</svg>
