<svg xmlns="http://www.w3.org/2000/svg" width="1100" height="620" viewBox="0 0 1100 620">
<rect width="100%" height="100%" fill="#FFFFFF"/>
<text x="55" y="50" font-family="Arial" font-size="32" font-weight="bold" fill="#0F172A">Red OPF de referencia</text>
<text x="55" y="82" font-family="Arial" font-size="18" fill="#475569">Barras, corredores y restricciones de red</text>
<line x1="170" y1="180" x2="430" y2="140" stroke="#64748b" stroke-width="3"/><line x1="170" y1="180" x2="320" y2="400" stroke="#64748b" stroke-width="3"/><line x1="170" y1="180" x2="600" y2="420" stroke="#64748b" stroke-width="3"/><line x1="430" y1="140" x2="720" y2="190" stroke="#64748b" stroke-width="3"/><line x1="430" y1="140" x2="320" y2="400" stroke="#64748b" stroke-width="3"/><line x1="430" y1="140" x2="900" y2="320" stroke="#64748b" stroke-width="3"/><line x1="720" y1="190" x2="600" y2="420" stroke="#64748b" stroke-width="3"/><line x1="720" y1="190" x2="900" y2="320" stroke="#64748b" stroke-width="3"/><line x1="320" y1="400" x2="600" y2="420" stroke="#64748b" stroke-width="3"/><line x1="320" y1="400" x2="900" y2="320" stroke="#64748b" stroke-width="3"/><line x1="600" y1="420" x2="900" y2="320" stroke="#64748b" stroke-width="3"/><circle cx="170" cy="180" r="38" fill="#E0F2FE" stroke="#0F172A" stroke-width="3"/><text x="170" y="187" text-anchor="middle" font-family="Arial" font-size="24" font-weight="bold" fill="#0F172A">1</text><text x="170" y="242" text-anchor="middle" font-family="Arial" font-size="15" fill="#334155">Gen/Slack</text><circle cx="430" cy="140" r="38" fill="#E0F2FE" stroke="#0F172A" stroke-width="3"/><text x="430" y="147" text-anchor="middle" font-family="Arial" font-size="24" font-weight="bold" fill="#0F172A">2</text><text x="430" y="202" text-anchor="middle" font-family="Arial" font-size="15" fill="#334155">Carga</text><circle cx="720" cy="190" r="38" fill="#E0F2FE" stroke="#0F172A" stroke-width="3"/><text x="720" y="197" text-anchor="middle" font-family="Arial" font-size="24" font-weight="bold" fill="#0F172A">3</text><text x="720" y="252" text-anchor="middle" font-family="Arial" font-size="15" fill="#334155">Gen</text><circle cx="320" cy="400" r="38" fill="#E0F2FE" stroke="#0F172A" stroke-width="3"/><text x="320" y="407" text-anchor="middle" font-family="Arial" font-size="24" font-weight="bold" fill="#0F172A">4</text><text x="320" y="462" text-anchor="middle" font-family="Arial" font-size="15" fill="#334155">Carga</text><circle cx="600" cy="420" r="38" fill="#E0F2FE" stroke="#0F172A" stroke-width="3"/><text x="600" y="427" text-anchor="middle" font-family="Arial" font-size="24" font-weight="bold" fill="#0F172A">5</text><text x="600" y="482" text-anchor="middle" font-family="Arial" font-size="15" fill="#334155">Carga</text><circle cx="900" cy="320" r="38" fill="#E0F2FE" stroke="#0F172A" stroke-width="3"/><text x="900" y="327" text-anchor="middle" font-family="Arial" font-size="24" font-weight="bold" fill="#0F172A">6</text><text x="900" y="382" text-anchor="middle" font-family="Arial" font-size="15" fill="#334155">Gen</text>
</svg>