<svg xmlns="http://www.w3.org/2000/svg" width="1400" height="650" viewBox="0 0 1400 650">

<rect width="1400" height="650" fill="#ffffff"/>
<text x="70" y="70" font-family="Arial" font-size="34" font-weight="bold" fill="#0f172a">Flujo de trabajo Python–AMPL–Excel</text>
<text x="70" y="105" font-family="Arial" font-size="18" fill="#475569">Python prepara y analiza datos; AMPL formula y resuelve; Excel facilita revisión y reporte.</text>
<g font-family="Arial">
<rect x="90" y="230" width="270" height="160" rx="22" fill="#fef3c7" stroke="#854d0e" stroke-width="3"/>
<text x="125" y="280" font-size="25" font-weight="bold">Python</text><text x="125" y="320" font-size="17">pandas · gráficos</text><text x="125" y="350" font-size="17">proyección de demanda</text>
<rect x="455" y="230" width="270" height="160" rx="22" fill="#eff6ff" stroke="#1e40af" stroke-width="3"/>
<text x="490" y="280" font-size="25" font-weight="bold">AMPL</text><text x="490" y="320" font-size="17">.mod · .dat · .run</text><text x="490" y="350" font-size="17">solver · resultados</text>
<rect x="820" y="230" width="270" height="160" rx="22" fill="#dcfce7" stroke="#166534" stroke-width="3"/>
<text x="855" y="280" font-size="25" font-weight="bold">Excel/CSV</text><text x="855" y="320" font-size="17">datos tabulares</text><text x="855" y="350" font-size="17">reportes</text>
<rect x="1165" y="230" width="155" height="160" rx="22" fill="#f8fafc" stroke="#334155" stroke-width="3"/>
<text x="1195" y="285" font-size="22" font-weight="bold">Informe</text><text x="1195" y="325" font-size="16">tablas</text><text x="1195" y="352" font-size="16">figuras</text>
<line x1="365" y1="310" x2="445" y2="310" stroke="#334155" stroke-width="4"/><polygon points="445,310 425,298 425,322" fill="#334155"/>
<line x1="730" y1="310" x2="810" y2="310" stroke="#334155" stroke-width="4"/><polygon points="810,310 790,298 790,322" fill="#334155"/>
<line x1="1095" y1="310" x2="1155" y2="310" stroke="#334155" stroke-width="4"/><polygon points="1155,310 1135,298 1135,322" fill="#334155"/>
</g>

</svg>
