<svg xmlns="http://www.w3.org/2000/svg" width="1280" height="720" viewBox="0 0 1280 720">
<rect width="100%" height="100%" fill="#ffffff"/>
<text x="60" y="55" font-family="Arial" font-size="34" font-weight="bold" fill="#0f172a">Horizonte temporal de decisiones en sistemas eléctricos</text>
<text x="60" y="88" font-family="Arial" font-size="18" fill="#475569">De la operación horaria a la expansión de largo plazo</text>

<line x1="120" y1="470" x2="1140" y2="470" stroke="#0f172a" stroke-width="4"/>
<polygon points="1140,470 1115,455 1115,485" fill="#0f172a"/>
<text x="115" y="520" font-family="Arial" font-size="17">minutos</text>
<text x="300" y="520" font-family="Arial" font-size="17">horas</text>
<text x="485" y="520" font-family="Arial" font-size="17">días</text>
<text x="665" y="520" font-family="Arial" font-size="17">meses</text>
<text x="845" y="520" font-family="Arial" font-size="17">años</text>
<text x="1040" y="520" font-family="Arial" font-size="17">décadas</text>
<rect x="130" y="190" width="250" height="90" rx="18" fill="#dbeafe" stroke="#1e40af" stroke-width="3"/>
<text x="155" y="228" font-family="Arial" font-size="21" font-weight="bold">Operación</text>
<text x="155" y="258" font-family="Arial" font-size="16">ED, UC, reserva</text>
<rect x="300" y="310" width="250" height="90" rx="18" fill="#dcfce7" stroke="#166534" stroke-width="3"/>
<text x="325" y="348" font-family="Arial" font-size="21" font-weight="bold">OPF</text>
<text x="325" y="378" font-family="Arial" font-size="16">red, flujos, tensión</text>
<rect x="555" y="190" width="250" height="90" rx="18" fill="#fef3c7" stroke="#854d0e" stroke-width="3"/>
<text x="580" y="228" font-family="Arial" font-size="21" font-weight="bold">Demanda</text>
<text x="580" y="258" font-family="Arial" font-size="16">proyección y escenarios</text>
<rect x="765" y="310" width="250" height="90" rx="18" fill="#ede9fe" stroke="#6d28d9" stroke-width="3"/>
<text x="790" y="348" font-family="Arial" font-size="21" font-weight="bold">TNEP</text>
<text x="790" y="378" font-family="Arial" font-size="16">red futura</text>
<rect x="925" y="190" width="250" height="90" rx="18" fill="#fee2e2" stroke="#991b1b" stroke-width="3"/>
<text x="950" y="228" font-family="Arial" font-size="21" font-weight="bold">GEP</text>
<text x="950" y="258" font-family="Arial" font-size="16">capacidad futura</text>

</svg>
