<svg xmlns="http://www.w3.org/2000/svg" width="1280" height="720" viewBox="0 0 1280 720">
<rect width="100%" height="100%" fill="#ffffff"/>
<text x="60" y="55" font-family="Arial" font-size="34" font-weight="bold" fill="#0f172a">Ruta del curso</text>
<text x="60" y="88" font-family="Arial" font-size="18" fill="#475569">Secuencia lógica de aprendizaje</text>

<g font-family="Arial">
<rect x="70" y="240" width="170" height="120" rx="18" fill="#e0f2fe" stroke="#0369a1" stroke-width="3"/>
<text x="95" y="285" font-size="20" font-weight="bold">01</text><text x="95" y="320" font-size="18">Optimización</text>
<rect x="255" y="240" width="170" height="120" rx="18" fill="#dcfce7" stroke="#166534" stroke-width="3"/>
<text x="280" y="285" font-size="20" font-weight="bold">02</text><text x="280" y="320" font-size="18">Operación</text>
<rect x="440" y="240" width="170" height="120" rx="18" fill="#fef3c7" stroke="#854d0e" stroke-width="3"/>
<text x="465" y="285" font-size="20" font-weight="bold">03</text><text x="465" y="320" font-size="18">OPF</text>
<rect x="625" y="240" width="170" height="120" rx="18" fill="#fce7f3" stroke="#9d174d" stroke-width="3"/>
<text x="650" y="285" font-size="20" font-weight="bold">04</text><text x="650" y="320" font-size="18">Demanda</text>
<rect x="810" y="240" width="170" height="120" rx="18" fill="#ede9fe" stroke="#6d28d9" stroke-width="3"/>
<text x="835" y="285" font-size="20" font-weight="bold">05</text><text x="835" y="320" font-size="18">TNEP</text>
<rect x="995" y="240" width="170" height="120" rx="18" fill="#fee2e2" stroke="#991b1b" stroke-width="3"/>
<text x="1020" y="285" font-size="20" font-weight="bold">06</text><text x="1020" y="320" font-size="18">GEP</text>
<line x1="240" y1="300" x2="255" y2="300" stroke="#334155" stroke-width="3"/>
<line x1="425" y1="300" x2="440" y2="300" stroke="#334155" stroke-width="3"/>
<line x1="610" y1="300" x2="625" y2="300" stroke="#334155" stroke-width="3"/>
<line x1="795" y1="300" x2="810" y2="300" stroke="#334155" stroke-width="3"/>
<line x1="980" y1="300" x2="995" y2="300" stroke="#334155" stroke-width="3"/>
</g>

</svg>
