<svg xmlns="http://www.w3.org/2000/svg" width="1500" height="520" viewBox="0 0 1500 520">

<rect width="1500" height="520" fill="#ffffff"/>
<text x="60" y="65" font-family="Arial" font-size="34" font-weight="bold" fill="#0f172a">Ruta académica del repositorio</text>
<text x="60" y="100" font-family="Arial" font-size="18" fill="#475569">Fundamentos → lenguaje de modelado → operación → red → demanda futura → expansión.</text>
<g font-family="Arial">
<rect x="60" y="190" width="170" height="120" rx="18" fill="#e0f2fe" stroke="#0369a1" stroke-width="3"/>
<text x="85" y="235" font-size="22" font-weight="bold">01</text><text x="85" y="270" font-size="17">Optimización</text>
<rect x="250" y="190" width="170" height="120" rx="18" fill="#dcfce7" stroke="#166534" stroke-width="3"/>
<text x="275" y="235" font-size="22" font-weight="bold">02</text><text x="275" y="270" font-size="17">AMPL</text>
<rect x="440" y="190" width="170" height="120" rx="18" fill="#fef3c7" stroke="#854d0e" stroke-width="3"/>
<text x="465" y="235" font-size="22" font-weight="bold">03</text><text x="465" y="270" font-size="17">Operación</text>
<rect x="630" y="190" width="170" height="120" rx="18" fill="#fce7f3" stroke="#9d174d" stroke-width="3"/>
<text x="655" y="235" font-size="22" font-weight="bold">04</text><text x="655" y="270" font-size="17">OPF</text>
<rect x="820" y="190" width="170" height="120" rx="18" fill="#ffedd5" stroke="#9a3412" stroke-width="3"/>
<text x="845" y="235" font-size="22" font-weight="bold">05</text><text x="845" y="270" font-size="17">Demanda</text>
<rect x="1010" y="190" width="170" height="120" rx="18" fill="#ede9fe" stroke="#6d28d9" stroke-width="3"/>
<text x="1035" y="235" font-size="22" font-weight="bold">06</text><text x="1035" y="270" font-size="17">TNEP</text>
<rect x="1200" y="190" width="170" height="120" rx="18" fill="#fee2e2" stroke="#991b1b" stroke-width="3"/>
<text x="1225" y="235" font-size="22" font-weight="bold">07</text><text x="1225" y="270" font-size="17">GEP</text>
<g stroke="#334155" stroke-width="3"><line x1="230" y1="250" x2="250" y2="250"/><line x1="420" y1="250" x2="440" y2="250"/><line x1="610" y1="250" x2="630" y2="250"/><line x1="800" y1="250" x2="820" y2="250"/><line x1="990" y1="250" x2="1010" y2="250"/><line x1="1180" y1="250" x2="1200" y2="250"/></g>
</g>

</svg>
