<svg xmlns="http://www.w3.org/2000/svg" width="1100" height="710" viewBox="0 0 1100 710">
<rect width="100%" height="100%" fill="#FFFFFF"/>
<text x="55" y="50" font-family="Arial" font-size="32" font-weight="bold" fill="#0F172A">Planificación y Operación de Sistemas Eléctricos de Potencia</text>
<text x="55" y="82" font-family="Arial" font-size="18" fill="#475569">Modelos, casos de estudio, notebooks y actividades de evaluación</text>
<rect x="55" y="110" width="990" height="64" rx="14" fill="#DCFCE7" stroke="#334155" stroke-width="2"/><text x="85" y="137" font-family="Arial" font-size="21" font-weight="bold" fill="#111827">1. Fundamentos</text><text x="85" y="162" font-family="Arial" font-size="16" fill="#334155">LP, MILP, NLP y estructura general de AMPL</text><line x1="550" y1="174" x2="550" y2="196" stroke="#475569" stroke-width="3"/><polygon points="540,192 560,192 550,204" fill="#475569"/><rect x="55" y="205" width="990" height="64" rx="14" fill="#FEF3C7" stroke="#334155" stroke-width="2"/><text x="85" y="232" font-family="Arial" font-size="21" font-weight="bold" fill="#111827">2. Operación</text><text x="85" y="257" font-family="Arial" font-size="16" fill="#334155">Despacho económico, UC y coordinación hidrotérmica</text><line x1="550" y1="269" x2="550" y2="291" stroke="#475569" stroke-width="3"/><polygon points="540,287 560,287 550,299" fill="#475569"/><rect x="55" y="300" width="990" height="64" rx="14" fill="#FCE7F3" stroke="#334155" stroke-width="2"/><text x="85" y="327" font-family="Arial" font-size="21" font-weight="bold" fill="#111827">3. OPF</text><text x="85" y="352" font-family="Arial" font-size="16" fill="#334155">Flujo óptimo DC/AC y restricciones de red</text><line x1="550" y1="364" x2="550" y2="386" stroke="#475569" stroke-width="3"/><polygon points="540,382 560,382 550,394" fill="#475569"/><rect x="55" y="395" width="990" height="64" rx="14" fill="#EDE9FE" stroke="#334155" stroke-width="2"/><text x="85" y="422" font-family="Arial" font-size="21" font-weight="bold" fill="#111827">4. TNEP</text><text x="85" y="447" font-family="Arial" font-size="16" fill="#334155">Expansión de transmisión y comparación de formulaciones</text><line x1="550" y1="459" x2="550" y2="481" stroke="#475569" stroke-width="3"/><polygon points="540,477 560,477 550,489" fill="#475569"/><rect x="55" y="490" width="990" height="64" rx="14" fill="#FFEDD5" stroke="#334155" stroke-width="2"/><text x="85" y="517" font-family="Arial" font-size="21" font-weight="bold" fill="#111827">5. GEP</text><text x="85" y="542" font-family="Arial" font-size="16" fill="#334155">Expansión de generación base, por bloques y multianual</text><line x1="550" y1="554" x2="550" y2="576" stroke="#475569" stroke-width="3"/><polygon points="540,572 560,572 550,584" fill="#475569"/><rect x="55" y="585" width="990" height="64" rx="14" fill="#E0F2FE" stroke="#334155" stroke-width="2"/><text x="85" y="612" font-family="Arial" font-size="21" font-weight="bold" fill="#111827">6. Casos</text><text x="85" y="637" font-family="Arial" font-size="16" fill="#334155">Garver, IEEE y sistemas didácticos reutilizables</text>
</svg>