<svg xmlns="http://www.w3.org/2000/svg" width="1300" height="720" viewBox="0 0 1300 720"><rect width="100%" height="100%" fill="#ffffff"/><text x="60" y="65" font-family="Arial" font-size="36" font-weight="bold" fill="#0f172a">Mapa académico del repositorio</text><text x="60" y="100" font-family="Arial" font-size="19" fill="#475569">Ruta de aprendizaje: teoría, modelos, casos, actividades y resultados</text><rect x="90" y="180" width="145" height="95" rx="18" fill="#dbeafe" stroke="#334155" stroke-width="2"/><text x="162" y="218" text-anchor="middle" font-family="Arial" font-size="24" font-weight="bold" fill="#0f172a">01</text><text x="162" y="248" text-anchor="middle" font-family="Arial" font-size="16" fill="#334155">Fundamentos</text><line x1="235" y1="227" x2="282" y2="227" stroke="#475569" stroke-width="3"/><polygon points="278,219 278,235 290,227" fill="#475569"/><rect x="290" y="180" width="145" height="95" rx="18" fill="#dcfce7" stroke="#334155" stroke-width="2"/><text x="362" y="218" text-anchor="middle" font-family="Arial" font-size="24" font-weight="bold" fill="#0f172a">02</text><text x="362" y="248" text-anchor="middle" font-family="Arial" font-size="16" fill="#334155">Operación</text><line x1="435" y1="227" x2="482" y2="227" stroke="#475569" stroke-width="3"/><polygon points="478,219 478,235 490,227" fill="#475569"/><rect x="490" y="180" width="145" height="95" rx="18" fill="#ffedd5" stroke="#334155" stroke-width="2"/><text x="562" y="218" text-anchor="middle" font-family="Arial" font-size="24" font-weight="bold" fill="#0f172a">03</text><text x="562" y="248" text-anchor="middle" font-family="Arial" font-size="16" fill="#334155">OPF</text><line x1="635" y1="227" x2="682" y2="227" stroke="#475569" stroke-width="3"/><polygon points="678,219 678,235 690,227" fill="#475569"/><rect x="690" y="180" width="145" height="95" rx="18" fill="#f3e8ff" stroke="#334155" stroke-width="2"/><text x="762" y="218" text-anchor="middle" font-family="Arial" font-size="24" font-weight="bold" fill="#0f172a">04</text><text x="762" y="248" text-anchor="middle" font-family="Arial" font-size="16" fill="#334155">TNEP</text><line x1="835" y1="227" x2="882" y2="227" stroke="#475569" stroke-width="3"/><polygon points="878,219 878,235 890,227" fill="#475569"/><rect x="890" y="180" width="145" height="95" rx="18" fill="#fef3c7" stroke="#334155" stroke-width="2"/><text x="962" y="218" text-anchor="middle" font-family="Arial" font-size="24" font-weight="bold" fill="#0f172a">05</text><text x="962" y="248" text-anchor="middle" font-family="Arial" font-size="16" fill="#334155">GEP</text><line x1="1035" y1="227" x2="1082" y2="227" stroke="#475569" stroke-width="3"/><polygon points="1078,219 1078,235 1090,227" fill="#475569"/><rect x="1090" y="180" width="145" height="95" rx="18" fill="#ccfbf1" stroke="#334155" stroke-width="2"/><text x="1162" y="218" text-anchor="middle" font-family="Arial" font-size="24" font-weight="bold" fill="#0f172a">06</text><text x="1162" y="248" text-anchor="middle" font-family="Arial" font-size="16" fill="#334155">Casos</text><rect x="160" y="360" width="980" height="50" rx="14" fill="#f8fafc" stroke="#cbd5e1" stroke-width="2"/><text x="190" y="391" font-family="Arial" font-size="18" font-weight="bold" fill="#0f172a">Modelos matemáticos</text><text x="430" y="391" font-family="Arial" font-size="16" fill="#475569">Conjuntos, índices, parámetros, variables, objetivo y restricciones</text><rect x="160" y="430" width="980" height="50" rx="14" fill="#f8fafc" stroke="#cbd5e1" stroke-width="2"/><text x="190" y="461" font-family="Arial" font-size="18" font-weight="bold" fill="#0f172a">Casos de estudio</text><text x="430" y="461" font-family="Arial" font-size="16" fill="#475569">Datos Garver, IEEE y sistemas didácticos reutilizables</text><rect x="160" y="500" width="980" height="50" rx="14" fill="#f8fafc" stroke="#cbd5e1" stroke-width="2"/><text x="190" y="531" font-family="Arial" font-size="18" font-weight="bold" fill="#0f172a">Notebooks</text><text x="430" y="531" font-family="Arial" font-size="16" fill="#475569">Exploración de datos, gráficos y validación previa</text><rect x="160" y="570" width="980" height="50" rx="14" fill="#f8fafc" stroke="#cbd5e1" stroke-width="2"/><text x="190" y="601" font-family="Arial" font-size="18" font-weight="bold" fill="#0f172a">Actividades</text><text x="430" y="601" font-family="Arial" font-size="16" fill="#475569">Construcción de .dat/.mod/.run/.out, Excel e informe</text></svg>