<svg xmlns="http://www.w3.org/2000/svg" width="1180" height="720" viewBox="0 0 1180 720">
<rect width="100%" height="100%" fill="#ffffff"/>
<text x="70" y="52" font-family="Arial" font-size="32" font-weight="bold" fill="#0f172a">Modelo OPF: red, generación y demanda</text>
<text x="70" y="82" font-family="Arial" font-size="18" fill="#475569">El despacho queda condicionado por límites de transmisión</text>
<line x1="160" y1="210" x2="430" y2="140" stroke="#64748b" stroke-width="4"/><text x="295.0" y="167.0" text-anchor="middle" font-family="Arial" font-size="14" fill="#475569">x12</text><line x1="160" y1="210" x2="730" y2="210" stroke="#64748b" stroke-width="4"/><text x="445.0" y="202.0" text-anchor="middle" font-family="Arial" font-size="14" fill="#475569">x13</text><line x1="430" y1="140" x2="730" y2="210" stroke="#64748b" stroke-width="4"/><text x="580.0" y="167.0" text-anchor="middle" font-family="Arial" font-size="14" fill="#475569">x23</text><line x1="430" y1="140" x2="360" y2="455" stroke="#64748b" stroke-width="4"/><text x="395.0" y="289.5" text-anchor="middle" font-family="Arial" font-size="14" fill="#475569">x24</text><line x1="730" y1="210" x2="360" y2="455" stroke="#64748b" stroke-width="4"/><text x="545.0" y="324.5" text-anchor="middle" font-family="Arial" font-size="14" fill="#475569">x34</text><line x1="730" y1="210" x2="690" y2="455" stroke="#64748b" stroke-width="4"/><text x="710.0" y="324.5" text-anchor="middle" font-family="Arial" font-size="14" fill="#475569">x35</text><line x1="360" y1="455" x2="690" y2="455" stroke="#64748b" stroke-width="4"/><text x="525.0" y="447.0" text-anchor="middle" font-family="Arial" font-size="14" fill="#475569">x45</text><circle cx="160" cy="210" r="42" fill="#dbeafe" stroke="#1e3a8a" stroke-width="3"/><text x="160" y="217" text-anchor="middle" font-family="Arial" font-size="24" font-weight="bold" fill="#0f172a">1</text><text x="160" y="275" text-anchor="middle" font-family="Arial" font-size="15" fill="#334155">Slack/Gen</text><circle cx="430" cy="140" r="42" fill="#dbeafe" stroke="#1e3a8a" stroke-width="3"/><text x="430" y="147" text-anchor="middle" font-family="Arial" font-size="24" font-weight="bold" fill="#0f172a">2</text><text x="430" y="205" text-anchor="middle" font-family="Arial" font-size="15" fill="#334155">Gen/Carga</text><circle cx="730" cy="210" r="42" fill="#dbeafe" stroke="#1e3a8a" stroke-width="3"/><text x="730" y="217" text-anchor="middle" font-family="Arial" font-size="24" font-weight="bold" fill="#0f172a">3</text><text x="730" y="275" text-anchor="middle" font-family="Arial" font-size="15" fill="#334155">Carga</text><circle cx="360" cy="455" r="42" fill="#dbeafe" stroke="#1e3a8a" stroke-width="3"/><text x="360" y="462" text-anchor="middle" font-family="Arial" font-size="24" font-weight="bold" fill="#0f172a">4</text><text x="360" y="520" text-anchor="middle" font-family="Arial" font-size="15" fill="#334155">Carga</text><circle cx="690" cy="455" r="42" fill="#dbeafe" stroke="#1e3a8a" stroke-width="3"/><text x="690" y="462" text-anchor="middle" font-family="Arial" font-size="24" font-weight="bold" fill="#0f172a">5</text><text x="690" y="520" text-anchor="middle" font-family="Arial" font-size="15" fill="#334155">Gen/Carga</text>
</svg>